<svg width="273" height="98" viewBox="0 0 273 98" fill="none" xmlns="http://www.w3.org/2000/svg">
<path d="M273 26.6V28.7C271.902 29.1 270.833 29.9333 269.793 31.2C268.811 32.4666 267.858 34.6666 266.933 37.8L255.407 76.2L251.594 85.5L231.748 34.3C230.766 31.7666 229.812 30.2 228.888 29.6C227.964 29 227.184 28.7 226.548 28.7V26.6C228.686 26.8 230.881 26.9666 233.135 27.1C235.388 27.1666 237.526 27.2 239.548 27.2C242.09 27.2 244.343 27.1333 246.307 27C248.272 26.8666 250.121 26.7333 251.854 26.6V28.7C250.756 28.7 249.716 28.7666 248.734 28.9C247.752 29.0333 247.059 29.4333 246.654 30.1C246.307 30.7 246.423 31.8 247.001 33.4L258.007 63.8L257.14 64.5L262.427 46.8C263.64 42.7333 264.16 39.4 263.987 36.8C263.814 34.2 263.149 32.2333 261.994 30.9C260.838 29.5666 259.365 28.8333 257.574 28.7V26.6C258.44 26.6666 259.394 26.7333 260.434 26.8C261.531 26.8666 262.6 26.9333 263.64 27C264.68 27 265.576 27 266.327 27C267.425 27 268.638 26.9666 269.967 26.9C271.295 26.8333 272.307 26.7333 273 26.6ZM255.407 76.2L251.941 87.6C251.421 89.2666 250.843 90.7 250.207 91.9C249.63 93.1 248.936 94.0666 248.127 94.8C247.319 95.5333 246.279 96.1 245.008 96.5C243.794 96.9666 242.234 97.2 240.328 97.2C238.826 97.2 237.237 96.9 235.561 96.3C233.943 95.7666 232.557 94.8666 231.401 93.6C230.304 92.3333 229.755 90.6333 229.755 88.5C229.755 86.3 230.448 84.5333 231.835 83.2C233.221 81.9333 235.099 81.3 237.468 81.3C239.605 81.3 241.31 81.8666 242.581 83C243.91 84.1333 244.574 85.8333 244.574 88.1C244.574 89.5 244.17 90.8666 243.361 92.2C242.552 93.5333 241.281 94.5333 239.548 95.2C239.952 95.2666 240.385 95.3 240.848 95.3C241.368 95.3666 241.772 95.4 242.061 95.4C243.852 95.4 245.441 94.7333 246.827 93.4C248.214 92.1333 249.312 90.1333 250.121 87.4L253.154 76.8L255.407 76.2Z" fill="white"/>
<path d="M220.497 0V69.1C220.497 71.9 220.93 73.8 221.797 74.8C222.721 75.8 224.252 76.3 226.39 76.3V78.4C225.176 78.3333 223.385 78.2667 221.017 78.2C218.648 78.0667 216.25 78 213.824 78C211.455 78 209.057 78.0667 206.63 78.2C204.262 78.2667 202.471 78.3333 201.257 78.4V76.3C203.164 76.3 204.493 75.8 205.244 74.8C206.053 73.8 206.457 71.9 206.457 69.1V9.9C206.457 8.3 206.342 7.06667 206.11 6.2C205.879 5.26667 205.504 4.53333 204.984 4C204.579 3.46667 204.002 3.03333 203.251 2.7C202.499 2.3 201.691 2.1 200.824 2.1C199.148 2.1 197.791 2.4 196.751 3C195.769 3.53333 194.844 4.4 193.978 5.6C192.88 7.13333 192.187 9.16667 191.898 11.7C191.609 14.2333 191.464 17.8333 191.464 22.5V26.7H199.957V28.7H191.464V69.1C191.464 71.9667 192.042 73.9 193.198 74.9C194.411 75.8333 196.086 76.3 198.224 76.3V78.4C196.837 78.3333 194.902 78.2667 192.418 78.2C189.933 78.0667 187.391 78 184.791 78C182.076 78 179.505 78.0667 177.078 78.2C174.652 78.2667 172.803 78.3333 171.532 78.4V76.3C173.669 76.3 175.172 75.8 176.038 74.8C176.963 73.8 177.425 71.9 177.425 69.1V28.7H171.185V26.7H177.425C177.425 21.6333 177.974 17.4333 179.071 14.1C180.169 10.7667 181.787 8.03333 183.925 5.9C186.062 3.83333 188.46 2.36667 191.118 1.5C193.833 0.633331 196.491 0.199997 199.091 0.199997C200.997 0.199997 202.933 0.299997 204.897 0.499998C206.919 0.699999 209.057 0.800001 211.31 0.800001C212.581 0.800001 214.055 0.733334 215.73 0.599998C217.463 0.400001 219.052 0.200001 220.497 0Z" fill="white"/>
<path d="M150.654 25.2001C155.738 25.2001 159.725 26.9334 162.614 30.4001C165.502 33.8667 166.947 39.5667 166.947 47.5001H139.128L139.041 45.6001H155.16C155.276 42.3334 155.16 39.3334 154.814 36.6001C154.467 33.8001 153.889 31.5667 153.081 29.9001C152.329 28.2334 151.318 27.4001 150.047 27.4001C148.314 27.4001 146.841 28.8334 145.627 31.7001C144.414 34.5667 143.663 39.4334 143.374 46.3001L143.721 47.0001C143.605 47.7334 143.548 48.5001 143.548 49.3001C143.548 50.0334 143.548 50.8334 143.548 51.7001C143.548 56.3001 144.068 59.9667 145.108 62.7001C146.205 65.4334 147.563 67.3667 149.181 68.5001C150.798 69.6334 152.474 70.2001 154.207 70.2001C155.189 70.2001 156.287 70.0334 157.5 69.7001C158.714 69.3667 159.985 68.6667 161.314 67.6001C162.642 66.5334 163.913 64.9667 165.127 62.9001L166.6 63.5001C165.965 66.1001 164.867 68.6667 163.307 71.2001C161.805 73.6667 159.869 75.7334 157.5 77.4001C155.132 79.0001 152.272 79.8001 148.921 79.8001C145.107 79.8001 141.699 78.9001 138.694 77.1001C135.69 75.2334 133.292 72.3334 131.501 68.4001C129.768 64.4001 128.901 59.2001 128.901 52.8001C128.901 46.4667 129.855 41.2667 131.761 37.2001C133.668 33.1334 136.268 30.1334 139.561 28.2001C142.854 26.2001 146.552 25.2001 150.654 25.2001Z" fill="white"/>
<path d="M111.548 0.5C114.263 0.5 116.372 1.2 117.874 2.6C119.434 4 120.214 6.03333 120.214 8.7C120.214 11.3667 119.434 13.4 117.874 14.8C116.372 16.2 114.263 16.9 111.548 16.9C108.832 16.9 106.695 16.2 105.135 14.8C103.632 13.4 102.881 11.3667 102.881 8.7C102.881 6.03333 103.632 4 105.135 2.6C106.695 1.2 108.832 0.5 111.548 0.5ZM119.174 25.5V69.1C119.174 71.9 119.55 73.8 120.301 74.8C121.11 75.8 122.467 76.3 124.374 76.3V78.4C123.218 78.3333 121.514 78.2667 119.261 78.2C117.008 78.0667 114.725 78 112.414 78C110.103 78 107.735 78.0667 105.308 78.2C102.939 78.2667 101.148 78.3333 99.9348 78.4V76.3C101.841 76.3 103.17 75.8 103.921 74.8C104.73 73.8 105.135 71.9 105.135 69.1V37.5C105.135 34.5 104.759 32.3 104.008 30.9C103.257 29.4333 101.899 28.7 99.9348 28.7V26.6C101.784 26.8 103.575 26.9 105.308 26.9C107.908 26.9 110.363 26.8 112.674 26.6C115.043 26.3333 117.21 25.9667 119.174 25.5Z" fill="white"/>
<path d="M89.5669 25.2001C91.5313 25.2001 93.0912 25.7001 94.2468 26.7001C95.4023 27.6334 96.24 28.8667 96.76 30.4001C97.28 31.8667 97.54 33.3334 97.54 34.8001C97.54 37.5334 96.8467 39.7334 95.46 41.4001C94.1312 43.0667 92.369 43.9001 90.1736 43.9001C87.8625 43.9001 86.1004 43.3001 84.8871 42.1001C83.6738 40.8334 83.0672 39.1667 83.0672 37.1001C83.0672 35.0334 83.4427 33.3334 84.1938 32.0001C85.0026 30.6667 85.9848 29.5334 87.1403 28.6001C86.2737 28.4667 85.436 28.6001 84.6271 29.0001C83.7027 29.2667 82.836 29.7667 82.0272 30.5001C81.2183 31.2334 80.525 32.1001 79.9473 33.1001C79.3695 34.1001 78.9073 35.2001 78.5606 36.4001C78.2718 37.5334 78.1273 38.7001 78.1273 39.9001V68.1001C78.1273 71.3001 78.734 73.4667 79.9473 74.6001C81.2183 75.7334 83.2116 76.3001 85.927 76.3001V78.4001C84.5982 78.3334 82.6338 78.2667 80.0339 78.2001C77.434 78.0667 74.7474 78.0001 71.9742 78.0001C69.4898 78.0001 66.9766 78.0667 64.4345 78.2001C61.9501 78.2667 60.1013 78.3334 58.888 78.4001V76.3001C60.7946 76.3001 62.1234 75.8001 62.8745 74.8001C63.6834 73.8001 64.0878 71.9001 64.0878 69.1001V37.5001C64.0878 34.5001 63.7123 32.3001 62.9612 30.9001C62.2101 29.4334 60.8524 28.7001 58.888 28.7001V26.6001C60.7368 26.8001 62.5279 26.9001 64.2611 26.9001C66.8611 26.9001 69.3165 26.8001 71.6276 26.6001C73.9964 26.3334 76.1629 25.9667 78.1273 25.5001V33.7001C78.8206 31.9667 79.7162 30.4667 80.8139 29.2001C81.9694 27.9334 83.2694 26.9667 84.7138 26.3001C86.2159 25.5667 87.8336 25.2001 89.5669 25.2001Z" fill="white"/>
<path d="M0 7.59998C1.55995 7.66664 3.63987 7.73331 6.23978 7.79997C8.83969 7.86664 11.4396 7.89997 14.0395 7.89997C16.8705 7.89997 19.586 7.86664 22.1859 7.79997C24.8436 7.73331 26.7213 7.69997 27.819 7.69997C35.3299 7.69997 40.9341 9.16664 44.6318 12.1C48.3872 15.0333 50.2649 18.8 50.2649 23.4C50.2649 25.7333 49.6005 28.1333 48.2716 30.6C46.9428 33 44.8918 35.1666 42.1185 37.1C39.4031 38.9666 35.9076 40.2666 31.6322 41V41.2C37.2942 41.6 41.8008 42.7333 45.1517 44.6C48.5605 46.4 51.016 48.5666 52.5182 51.1C54.0203 53.6333 54.7714 56.2666 54.7714 59C54.7714 63.3333 53.7603 66.9333 51.7382 69.8C49.7738 72.6666 46.9139 74.8333 43.1585 76.3C39.4608 77.7 35.0121 78.4 29.8123 78.4C28.4257 78.4 26.4035 78.3666 23.7458 78.3C21.0881 78.1666 17.9105 78.1 14.2128 78.1C11.4974 78.1 8.83969 78.1333 6.23978 78.2C3.63987 78.2 1.55995 78.2666 0 78.4V76.4C1.79105 76.2666 3.11989 76 3.98653 75.6C4.91094 75.2 5.51758 74.4 5.80646 73.2C6.15312 72 6.32644 70.2 6.32644 67.8V18.2C6.32644 15.7333 6.15312 13.9333 5.80646 12.8C5.51758 11.6 4.91094 10.8 3.98653 10.4C3.11989 9.93331 1.79105 9.66664 0 9.59997V7.59998ZM27.0391 9.59997C24.9591 9.59997 23.6014 10.1666 22.9659 11.3C22.3303 12.4333 22.0126 14.7333 22.0126 18.2V67.8C22.0126 70.1333 22.157 71.9 22.4459 73.1C22.7925 74.3 23.3703 75.1 24.1791 75.5C24.988 75.9 26.2013 76.1 27.819 76.1C31.5167 76.1 34.2032 74.6 35.8787 71.6C37.612 68.5333 38.4787 64.2 38.4787 58.6C38.4787 53.4666 37.3809 49.5 35.1854 46.7C33.0477 43.9 29.4656 42.5 24.4391 42.5H17.5927C17.5927 42.5 17.5927 42.2333 17.5927 41.7C17.5927 41.1 17.5927 40.8 17.5927 40.8H25.0458C27.5301 40.8 29.4367 40.0666 30.7656 38.6C32.0944 37.0666 33.0188 35.0666 33.5388 32.6C34.0588 30.0666 34.3188 27.3666 34.3188 24.5C34.3188 19.5666 33.741 15.8666 32.5855 13.4C31.4878 10.8666 29.639 9.59997 27.0391 9.59997Z" fill="white"/>
</svg>
